# xmcd
# 
# Track frame offsets:
#     150
#     11030
#     26009
#     40909
#     54665
#     76275
#     89915
#     105319
#     125190
#     139158
#     152916
#     171041
#     183461
# 
# Disc length: 2617
# 
# Revision: 0
# Processed by: cddbd v1.5.2PL0 Copyright (c) Steve Scherf et al.
# Submitted via: fre:ac v1.0.27
# 
DISCID=b10a370d
DTITLE=Various Artist - Paddy Rock Radio Vol. 1
DYEAR=0
DGENRE=Folk/Rock
TTITLE0=Flatfoot 56 - Brotherhood
TTITLE1=The Peelers - Plastic Paddy
TTITLE2=The Bloody Irish Boys - Drunk Tonight
TTITLE3=The Killigans - Through The Flames
TTITLE4=Jackdaw - Something About Nothing
TTITLE5=The Go Set - 1788
TTITLE6=The Mahones - Drunken Lazy Bastard
TTITLE7=Switchback - Connemara Man
TTITLE8=The Prodigals - The Morning After
TTITLE9=Greenland Whalefishers - Streets of Salvation
TTITLE10=Ice Wagon Flu - Trinity
TTITLE11=The Scuttlers - Whisky In The Jar
TTITLE12=The Broken Shillelaghs - Sally MacLennane
EXTD=
EXTT0=
EXTT1=
EXTT2=
EXTT3=
EXTT4=
EXTT5=
EXTT6=
EXTT7=
EXTT8=
EXTT9=
EXTT10=
EXTT11=
EXTT12=
PLAYORDER=
